<svg xmlns="http://www.w3.org/2000/svg" width="250" height="250" viewBox="0 0 250 250" fill="none">
<path d="M 183.99,177.6 L 209.48,182.82 L 196.02,194.09 L 203.98,210.16 L 167.42,201.47 L 168.78,192.87 L 157.99,189.19 L 159.02,185.04 L 176.71,181.6 L 183.99,177.6 Z" fill="#7A1529" stroke="#15376B" stroke-width="2.2" stroke-miterlimit="10"/>
<path d="M 65.59,177.6 L 42.34,183.13 L 54.08,193.88 L 47.49,208.4 L 80.94,200.72 L 79.11,192.9 L 87.25,189.22 L 86.45,185.07 L 70.88,182.12 L 65.59,177.6 Z" fill="#7A1529" stroke="#15376B" stroke-width="2.2" stroke-miterlimit="10"/>
<path d="M 243.71,43.06 L 200.23,67.5 L 232.99,39.9 L 236.96,14.74 L 176.78,66.22 L 172.08,62.18 L 188.15,41.9 H 189.72 L 207.71,22.11 C 208.19,22.41 208.76,22.58 209.37,22.58 C 211.29,22.58 212.85,21.02 212.85,19.1 C 212.85,17.18 211.29,15.73 209.37,15.73 C 207.45,15.73 206.01,17.29 206.01,19.21 C 206.01,19.98 206.29,20.69 206.76,21.27 L 188.49,41.42 H 178.18 L 163.01,56.06 L 160.61,54.82 L 176.09,38.54 H 185.24 L 190.56,31.82 V 23.14 C 192.41,22.91 193.84,21.33 193.84,19.42 C 193.84,17.34 192.22,15.88 190.3,15.88 C 188.38,15.88 186.94,17.44 186.94,19.36 C 186.94,21.03 188.11,22.46 189.71,22.86 V 30.92 L 184.52,36.98 H 175.72 L 158.41,54.71 L 153.06,52.09 L 174.76,27.99 H 178.91 V 23.02 C 180.76,22.79 182.19,21.21 182.19,19.3 C 182.19,17.22 180.57,15.76 178.65,15.76 C 176.73,15.76 175.29,17.32 175.29,19.24 C 175.29,20.91 176.46,22.34 178.06,22.74 V 26.53 H 174.21 L 151.51,51.57 L 124.84,38.11 L 96.03,52.09 L 74.33,27.99 H 72.12 V 24.93 C 73.97,24.7 75.4,23.12 75.4,21.21 C 75.4,19.13 73.78,17.67 71.86,17.67 C 69.94,17.67 68.5,19.23 68.5,21.15 C 68.5,22.82 69.67,24.25 71.27,24.65 V 27.98 H 73.72 L 95.42,50.76 L 93.47,51.7 L 73.19,33.09 H 64.16 L 58.84,27.42 V 23.02 C 60.69,22.79 62.12,21.21 62.12,19.3 C 62.12,17.22 60.5,15.76 58.58,15.76 C 56.66,15.76 55.22,17.32 55.22,19.24 C 55.22,20.91 56.39,22.34 57.99,22.74 V 28.1 L 63.42,34.82 H 72.45 L 90.81,52.61 L 88.19,53.85 L 71.91,37.57 H 67.21 L 65.38,40.11 H 61.11 L 42.84,22.12 C 43.32,21.49 43.62,20.72 43.62,19.86 C 43.62,17.78 42,16.32 40.08,16.32 C 38.16,16.32 36.72,17.88 36.72,19.8 C 36.72,21.72 38.28,23.17 40.2,23.17 C 40.91,23.17 41.57,22.93 42.12,22.54 L 60.61,42.45 H 66.04 L 67.75,40.46 H 71.11 L 85.75,55.74 L 74.25,61.29 L 72.31,58.4 L 68.95,54.13 V 47.53 C 67.1,47.3 65.67,45.72 65.67,43.81 C 65.67,41.73 67.29,40.27 69.21,40.27 C 71.13,40.27 72.57,41.83 72.57,43.75 C 72.57,45.42 71.4,46.85 69.8,47.25 V 52.8 L 74.72,57.36 L 76.08,59.07 L 13.03,13.01 L 18.24,40.73 L 52.26,67.18 L 7.26,43.06 L 17.8,68.22 L 54.71,90.76 L 10.69,75.48 L 25.51,99.33 L 46.13,106.56 L 21.31,106.8 L 42.17,120.68 H 71.09 L 43.37,127.04 L 61.98,136.11 V 143.1 H 44.19 L 20.11,119.02 C 20.54,118.39 20.81,117.64 20.81,116.82 C 20.81,114.42 18.95,113.06 17.12,113.06 C 14.98,113.06 13.54,114.79 13.54,116.71 C 13.54,118.85 15.27,120.29 17.19,120.29 C 17.87,120.29 18.51,120.08 19.06,119.73 L 43.14,143.81 H 61.98 V 148.85 H 36.34 L 27.21,136.04 H 20.1 C 19.78,134.03 18.11,132.81 16.42,132.81 C 14.28,132.81 12.84,134.54 12.84,136.46 C 12.84,138.6 14.57,140.04 16.49,140.04 C 18.29,140.04 19.77,138.71 20.07,136.92 H 26.61 L 35.74,147.35 H 61.98 V 151.62 H 35.74 L 24.24,147.69 C 23.85,145.72 22.11,144.46 20.38,144.46 C 18.24,144.46 16.8,146.19 16.8,148.11 C 16.8,150.25 18.53,151.69 20.45,151.69 C 22.25,151.69 23.73,150.36 24.03,148.57 L 35.18,150.62 H 61.98 L 64.75,155.76 L 62.21,157.75 H 37.39 L 33.71,163.54 C 33.34,163.38 32.93,163.29 32.51,163.29 C 30.37,163.29 28.93,165.02 28.93,166.94 C 28.93,169.08 30.66,170.52 32.58,170.52 C 34.72,170.52 36.16,168.79 36.16,166.87 C 36.16,166.13 35.91,165.45 35.51,164.88 L 38.46,160.01 H 63.97 L 67.11,161.62 L 68.72,165.29 L 76.08,169.11 L 80.78,167.12 L 66.26,155.16 V 135.13 L 72.51,132.86 L 73.63,134.77 L 70.94,143.6 L 88.61,146.55 L 96.91,139.19 L 104.03,145.44 L 95.85,160.31 L 90.06,160.91 L 84.97,169.11 L 89.24,171.65 L 91.07,169.11 L 92.25,171.65 L 95.2,170.08 L 96.71,169.11 L 98.1,171.65 L 101.31,170.08 L 102.15,167.81 L 106.14,165.98 L 108.21,166.61 L 113.02,165.98 V 171.65 L 117.83,172.28 L 124.84,170.51 L 132.19,172.28 L 136.34,170.99 V 166.29 L 139.7,165.97 L 142.24,167.21 L 144.66,169.1 L 146.11,171.64 L 149.59,170.07 L 150.71,169.1 L 152.98,171.64 L 156.04,170.07 L 157.16,169.1 L 159.43,171.64 L 162.75,169.1 L 157.94,161.14 L 152.63,160.3 L 145.62,144.55 L 150.93,139.24 L 160.78,146.54 L 175.88,143.11 L 166.03,132.8 L 183.09,136.71 V 154.73 L 174.26,167.81 L 179.31,170.08 L 183.13,165.27 H 204.95 L 215.74,177.23 C 215.28,177.86 215,178.62 215,179.45 C 215,181.85 216.86,183.21 218.69,183.21 C 220.83,183.21 222.27,181.48 222.27,179.56 C 222.27,177.42 220.54,175.98 218.62,175.98 C 217.91,175.98 217.24,176.21 216.68,176.61 L 204.95,164.07 H 184.09 L 187.81,159.26 H 214.05 L 221.28,148.83 H 226.09 C 226.41,150.84 228.08,152.06 229.77,152.06 C 231.91,152.06 233.35,150.33 233.35,148.41 C 233.35,146.27 231.62,144.83 229.7,144.83 C 227.9,144.83 226.42,146.16 226.12,147.95 H 220.75 L 211.62,156.62 H 188.17 V 152.35 H 211.62 L 223.58,135.04 H 230.69 C 231.01,137.05 232.68,138.27 234.37,138.27 C 236.51,138.27 237.95,136.54 237.95,134.62 C 237.95,132.48 236.22,131.04 234.3,131.04 C 232.5,131.04 231.02,132.37 230.72,134.16 H 222.9 L 204.91,143.29 H 188.16 V 136.16 L 207.71,126.91 L 183.01,120.55 L 207.83,120.31 L 228.69,106.43 L 203.87,106.19 L 224.49,98.96 L 239.31,75.11 L 195.29,93.84 L 232.2,68.21 L 243.71,43.06 Z" fill="#15376B" stroke="#15376B" stroke-width="2.2" stroke-miterlimit="10"/>
<path d="M 124.72,38.74 L 67.75,66.22 L 71.23,69.9 L 89.95,76.49 V 91.2 L 105.82,105.72 L 106.14,104.6 L 114.97,86.11 L 112.18,81.29 H 104.22 L 104.46,77.61 L 107.11,74.13 L 113.62,72.08 L 116.16,68.26 H 138.55 L 134.61,73.3 L 142.79,103.96 L 143.63,105.08 L 159.26,91.2 V 76.49 L 177.87,64.65 L 124.72,38.74 Z" fill="#FEFEFE" stroke="#15376B" stroke-width="3.6" stroke-miterlimit="10"/>
<path d="M 124.36,46.09 L 78.88,66.22 L 80.06,68.21 L 124.36,48.08 L 169.61,67.65 L 170.79,65.66 L 124.36,46.09 Z" fill="#7A1529" stroke="#7A1529" stroke-width="1.5" stroke-miterlimit="10"/>
<path d="M 198.06,45.66 L 194.12,67.65 L 195.42,73.18 L 191.94,85.26 L 181.03,107.02 V 114.75 L 220.66,108.03 L 207.19,118.94 H 178.16 L 175.88,119.51 L 199.01,128.52 L 186.01,136.13 L 166.21,128.04 L 179.68,116.08 L 179.32,108.02 L 188.91,97.11 L 193.72,81.06 L 197.08,66.21 L 198.06,45.66 Z" fill="#FEFEFE" stroke="#15376B" stroke-width="2.2" stroke-miterlimit="10"/>
<path d="M 51.11,45.66 L 54.32,67.06 L 53.2,71.06 L 56.79,85.26 L 68.75,100.17 V 107.9 L 28.52,108.03 L 41.98,118.94 H 72.44 L 74.71,119.51 L 50.01,127.72 L 63.48,135.92 L 83.98,128.69 L 71.44,117.01 L 70.6,107.16 L 58.76,93.56 L 54.83,74.21 L 51.11,45.66 Z" fill="#FEFEFE" stroke="#15376B" stroke-width="2.2" stroke-miterlimit="10"/>
<path d="M 110.91,73.77 L 116.04,68.63 H 136.54 L 133.22,73.77 L 143.07,106.43 L 124.46,96.12 L 107.27,107.02 L 116.1,86.11 L 113.45,80.32 L 104.86,80.95 L 106.1,75.42 L 110.91,73.77 Z" fill="#FEFEFE" stroke="#15376B" stroke-width="3.6" stroke-miterlimit="10"/>
<path d="M 109.26,74.61 L 126.45,73.98 L 122.77,76.77 H 117.52 L 116.16,74.61 H 109.26 Z" fill="#15376B"/>
<path d="M 104.22,86.11 C 104.22,83.16 105.78,79.71 110.8,79.24 C 114.12,78.91 117.29,79.82 119.71,81.29 C 116.03,80.91 108.07,80.71 104.22,86.11 Z" fill="#15376B" stroke="#15376B" stroke-width="2.2" stroke-miterlimit="10"/>
<path d="M 124.72,96.12 L 103.02,110.01 L 102.54,138.84 C 102.54,142.16 103.91,145.34 106.58,147.35 L 125.19,160.23 L 143.07,146.71 C 145.74,144.72 146.92,142.04 146.92,138.36 V 111.25 L 124.72,96.12 Z" fill="#FEFEFE" stroke="#15376B" stroke-width="3.6" stroke-miterlimit="10"/>
<path d="M 124.61,110.01 L 128.23,121.28 H 140.83 L 130.64,128.63 L 134.32,139.66 L 124.61,132.65 L 115.48,139.9 L 118.96,128.75 L 109.01,121.39 L 121.09,121.16 L 124.61,110.01 Z" fill="#15376B"/>
<path d="M 102.07,188.83 L 91.62,201.15 L 93.24,210.62 L 105.78,204.02 L 110.81,188.19" stroke="#15376B" stroke-width="3.6" stroke-miterlimit="10"/>
<path d="M 147.16,188.83 L 157.95,201.15 L 155.89,210.62 L 144.62,204.86 L 138.95,188.19" stroke="#15376B" stroke-width="3.6" stroke-miterlimit="10"/>
<path d="M 115.08,209.91 V 224.89 L 124.72,236.4 L 134.25,224.44 L 132.99,208.02 L 131.16,188.07" stroke="#15376B" stroke-width="3.6" stroke-miterlimit="10"/>
<path d="M 101.09,212.29 L 105.9,223.19 L 116.57,212.29 L 119.93,188.07" stroke="#15376B" stroke-width="3.6" stroke-miterlimit="10"/>
<path d="M 147.99,212.29 L 143.43,223.19 L 133.89,213.1 L 131.47,188.07" stroke="#15376B" stroke-width="3.6" stroke-miterlimit="10"/>
<path d="M 110.05,207.21 L 114.48,188.72" stroke="#7A1529" stroke-width="1.5" stroke-miterlimit="10"/>
<path d="M 110.28,211.71 C 112.2,211.71 112.72,210.37 112.72,209.31 C 112.72,207.75 111.43,206.91 110.39,206.91 C 108.83,206.91 107.99,208.2 107.99,209.24 C 107.99,210.61 109.02,211.71 110.28,211.71 Z" stroke="#7A1529" stroke-width="1.5" stroke-miterlimit="10"/>
<path d="M 139.18,207.21 L 135.13,188.72" stroke="#7A1529" stroke-width="1.5" stroke-miterlimit="10"/>
<path d="M 139.58,211.08 C 141.21,211.08 141.87,209.81 141.87,208.75 C 141.87,207.38 140.72,206.54 139.68,206.54 C 138.31,206.54 137.47,207.71 137.47,208.75 C 137.47,209.98 138.41,211.08 139.58,211.08 Z" stroke="#7A1529" stroke-width="1.5" stroke-miterlimit="10"/>
<path d="M 124.72,188.19 V 217.91" stroke="#7A1529" stroke-width="1.5" stroke-miterlimit="10"/>
<path d="M 124.61,222.72 C 126.53,222.72 127.05,221.26 127.05,220.32 C 127.05,218.76 125.76,217.92 124.72,217.92 C 123.16,217.92 122.32,219.21 122.32,220.25 C 122.32,221.62 123.35,222.72 124.61,222.72 Z" stroke="#7A1529" stroke-width="1.5" stroke-miterlimit="10"/>
<path d="M 149.82,199.81 L 152.61,189.19" stroke="#7A1529" stroke-width="1.5" stroke-miterlimit="10"/>
<path d="M 149.94,202.01 C 151.5,202.01 152.16,200.74 152.16,199.69 C 152.16,198.32 150.95,197.59 149.98,197.59 C 148.61,197.59 147.81,198.76 147.81,199.72 C 147.81,200.95 148.77,202.01 149.94,202.01 Z" stroke="#7A1529" stroke-width="1.5" stroke-miterlimit="10"/>
<path d="M 100.01,199.81 L 103.92,188.72" stroke="#7A1529" stroke-width="1.5" stroke-miterlimit="10"/>
<path d="M 99.66,201.64 C 101.22,201.64 101.88,200.37 101.88,199.31 C 101.88,197.94 100.67,197.21 99.7,197.21 C 98.33,197.21 97.53,198.38 97.53,199.34 C 97.53,200.58 98.49,201.64 99.66,201.64 Z" stroke="#7A1529" stroke-width="1.5" stroke-miterlimit="10"/>
<path d="M 30.09,40.21 L 49.93,56.06" stroke="#7A1529" stroke-width="2" stroke-miterlimit="10"/>
<path d="M 29.92,41.42 C 31.31,42.81 32.83,42.31 33.68,41.46 C 34.89,40.25 34.51,38.48 33.63,37.6 C 32.31,36.28 30.48,36.68 29.6,37.56 C 28.45,38.71 28.52,40.38 29.92,41.42 Z" stroke="#7A1529" stroke-width="2" stroke-miterlimit="10"/>
<path d="M 217.82,40.21 L 199.83,55.3" stroke="#7A1529" stroke-width="2" stroke-miterlimit="10"/>
<path d="M 217.82,41.42 C 219.21,42.81 220.73,42.31 221.58,41.46 C 222.79,40.25 222.41,38.48 221.53,37.6 C 220.21,36.28 218.38,36.68 217.5,37.56 C 216.35,38.71 216.42,40.38 217.82,41.42 Z" stroke="#7A1529" stroke-width="2" stroke-miterlimit="10"/>
<path d="M 27.06,65.98 L 54.32,80.5" stroke="#7A1529" stroke-width="2" stroke-miterlimit="10"/>
<path d="M 25.99,64.71 C 25.99,66.79 27.61,67.63 28.76,67.63 C 30.32,67.63 31.16,66.18 31.16,64.93 C 31.16,63.2 29.71,62.23 28.46,62.23 C 26.89,62.23 25.99,63.46 25.99,64.71 Z" stroke="#7A1529" stroke-width="2" stroke-miterlimit="10"/>
<path d="M 220.92,65.66 L 193.2,83.09" stroke="#7A1529" stroke-width="2" stroke-miterlimit="10"/>
<path d="M 220.45,64.91 C 220.45,66.83 221.89,67.71 223.05,67.71 C 224.78,67.71 225.66,66.15 225.66,65.01 C 225.66,63.39 224.31,62.29 223.05,62.29 C 221.49,62.29 220.45,63.52 220.45,64.91 Z" stroke="#7A1529" stroke-width="2" stroke-miterlimit="10"/>
<path d="M 31.71,93.36 L 61.23,102.83" stroke="#7A1529" stroke-width="1.5" stroke-miterlimit="10"/>
<path d="M 30.69,93.36 C 30.69,95.28 32.25,96.16 33.35,96.16 C 34.91,96.16 35.75,94.71 35.75,93.56 C 35.75,91.94 34.4,90.84 33.24,90.84 C 31.68,90.84 30.69,92.07 30.69,93.36 Z" stroke="#7A1529" stroke-width="2" stroke-miterlimit="10"/>
<path d="M 214.79,93.6 L 187.07,103.45" stroke="#7A1529" stroke-width="1.5" stroke-miterlimit="10"/>
<path d="M 213.94,93.01 C 213.94,94.93 215.5,95.81 216.6,95.81 C 218.22,95.81 219.1,94.36 219.1,93.21 C 219.1,91.59 217.75,90.49 216.59,90.49 C 215.03,90.49 213.94,91.72 213.94,93.01 Z" stroke="#7A1529" stroke-width="2" stroke-miterlimit="10"/>
<path d="M 45.11,114.39 H 64.99" stroke="#7A1529" stroke-width="1.5" stroke-miterlimit="10"/>
<path d="M 182.46,114.39 H 204.48" stroke="#7A1529" stroke-width="1.5" stroke-miterlimit="10"/>
<path d="M 62.61,129.79 L 77.61,124.65" stroke="#7A1529" stroke-width="1.5" stroke-miterlimit="10"/>
<path d="M 171.26,124.65 L 187.31,129.79" stroke="#7A1529" stroke-width="1.5" stroke-miterlimit="10"/>
<path d="M 32.07,178.91 L 45.11,165.83 H 65.11" stroke="#15376B" stroke-width="1.5" stroke-miterlimit="10"/>
<path d="M 29.41,179.27 C 29.41,181.19 30.86,182.07 31.96,182.07 C 33.58,182.07 34.46,180.62 34.46,179.47 C 34.46,177.85 33.11,176.75 31.95,176.75 C 30.39,176.75 29.41,177.98 29.41,179.27 Z" stroke="#15376B" stroke-width="1.5" stroke-miterlimit="10"/>
<path d="M 68.72,65.98 L 82.29,80.5 V 95.96 L 101.39,113.27" stroke="#7A1529" stroke-width="2.2" stroke-miterlimit="10"/>
<path d="M 61.66,65.66 C 61.66,67.45 63.11,68.33 64.21,68.33 C 65.77,68.33 66.61,66.88 66.61,65.72 C 66.61,64.16 65.26,63.06 64.1,63.06 C 62.66,63.06 61.66,64.36 61.66,65.66 Z" stroke="#7A1529" stroke-width="2" stroke-miterlimit="10"/>
<path d="M 183.97,65.98 L 167.18,80.5 V 96.55 L 148.69,113.27" stroke="#7A1529" stroke-width="2.2" stroke-miterlimit="10"/>
<path d="M 187.65,65.66 C 187.65,67.45 186.2,68.33 185.1,68.33 C 183.54,68.33 182.7,66.88 182.7,65.72 C 182.7,64.16 184.05,63.06 185.21,63.06 C 186.65,63.06 187.65,64.36 187.65,65.66 Z" stroke="#7A1529" stroke-width="2" stroke-miterlimit="10"/>
<path d="M 68.72,82.49 L 74.71,87.05 V 100.17 L 96.67,120.1" stroke="#7A1529" stroke-width="1.2" stroke-miterlimit="10"/>
<path d="M 66.73,82.25 C 66.73,83.81 67.96,84.65 68.9,84.65 C 70.35,84.65 71.19,83.26 71.19,82.22 C 71.19,80.77 69.96,79.73 68.82,79.73 C 67.45,79.73 66.73,80.91 66.73,82.25 Z" stroke="#15376B" stroke-width="1.5" stroke-miterlimit="10"/>
<path d="M 66.1,94.15 C 66.1,95.71 67.33,96.44 68.27,96.44 C 69.72,96.44 70.45,95.11 70.45,94.07 C 70.45,92.62 69.22,91.65 68.18,91.65 C 66.81,91.65 66.1,92.82 66.1,94.15 Z" stroke="#7A1529" stroke-width="1.5" stroke-miterlimit="10"/>
<path d="M 182.07,82.49 L 174.72,87.05 V 102.06 L 148.69,129.19" stroke="#7A1529" stroke-width="1.2" stroke-miterlimit="10"/>
<path d="M 182.25,82.25 C 182.25,83.81 181.02,84.65 179.98,84.65 C 178.53,84.65 177.69,83.26 177.69,82.22 C 177.69,80.77 178.92,79.73 179.96,79.73 C 181.41,79.73 182.25,80.91 182.25,82.25 Z" stroke="#15376B" stroke-width="1.5" stroke-miterlimit="10"/>
<path d="M 184.15,94.15 C 184.15,95.71 182.92,96.44 181.98,96.44 C 180.53,96.44 179.69,95.11 179.69,94.07 C 179.69,92.62 180.92,91.65 181.96,91.65 C 183.33,91.65 184.15,92.82 184.15,94.15 Z" stroke="#7A1529" stroke-width="1.5" stroke-miterlimit="10"/>
<path d="M 76.82,112.23 C 76.82,114.15 78.38,115.03 79.48,115.03 C 81.1,115.03 81.98,113.58 81.98,112.43 C 81.98,110.81 80.63,109.71 79.47,109.71 C 77.91,109.71 76.82,110.94 76.82,112.23 Z" stroke="#7A1529" stroke-width="2" stroke-miterlimit="10"/>
<path d="M 167.65,112.86 C 167.65,114.78 169.21,115.56 170.31,115.56 C 171.93,115.56 172.81,114.17 172.81,113.01 C 172.81,111.39 171.46,110.35 170.3,110.35 C 168.74,110.35 167.65,111.64 167.65,112.86 Z" stroke="#7A1529" stroke-width="2" stroke-miterlimit="10"/>
<path d="M 178.34,135.01 V 153.62 L 168.03,168.14" stroke="#7A1529" stroke-width="2.2" stroke-miterlimit="10"/>
<path d="M 69.71,135.01 V 153.62 L 79.66,168.14" stroke="#7A1529" stroke-width="2.2" stroke-miterlimit="10"/>
<path d="M 63.36,171.65 L 78.18,168.69 C 87.81,166.42 99.77,165.13 124.06,165.13 C 141.73,165.13 155.96,166.18 169.97,169.13 L 186.76,172.61 L 182.7,193.86 C 170.04,190.18 154.09,187.64 124.61,187.64 C 102.63,187.64 87.17,189.31 75.09,192.51 L 67.43,194.22 L 63.36,171.65 Z" fill="#15376B" stroke="#7A1529" stroke-width="2.2" stroke-miterlimit="10"/>
<path d="M 94.61,161.14 C 91.94,162.97 89.27,167.41 89.82,170.08 C 90.25,172.16 92.05,173.62 92.76,173.62 C 92.13,171.48 93.31,167.33 96.27,165.76" fill="#15376B"/>
<path d="M 100.28,161.49 C 97.9,163.11 96.27,167.01 96.63,169.39 C 97.06,171.47 98.79,172.93 99.5,172.93 C 98.75,170.47 100.05,166.93 103.12,165.4" fill="#15376B"/>
<path d="M 106.02,161.14 C 103.76,162.76 101.83,166.81 102.03,169.22 C 102.15,170.84 103.01,172.39 103.72,172.61 C 103.24,170.15 104.63,166.41 107.95,164.96" fill="#15376B"/>
<path d="M 155.06,161.14 C 157.73,162.97 160.4,167.41 159.85,170.08 C 159.42,172.16 157.62,173.62 156.91,173.62 C 157.66,171.16 156.37,167.33 153.29,165.4" fill="#15376B"/>
<path d="M 149.75,161.14 C 152.13,162.76 153.96,166.81 153.61,169.22 C 153.33,170.96 151.62,172.61 150.91,172.61 C 151.54,170.15 150.15,166.41 147.19,164.96" fill="#15376B"/>
<path d="M 144.19,160.68 C 146.57,162.3 148.63,166.7 148.16,169.11 C 147.73,170.94 146.06,172.61 145.35,172.61 C 146.21,170.03 144.74,166.41 141.67,164.96" fill="#15376B"/>
</svg>